<mxfile host="app.diagrams.net" modified="2024-03-03T11:20:33.117Z" agent="Mozilla/5.0 (Windows NT 10.0; Win64; x64) AppleWebKit/537.36 (KHTML, like Gecko) Chrome/122.0.0.0 Safari/537.36" etag="KVeVSzb72ztynFrEN2gq" version="24.0.0" type="device">
  <diagram id="PWOiysjbzoVnrJI6Vcf2" name="Saga graph">
    <mxGraphModel dx="1434" dy="892" grid="1" gridSize="10" guides="1" tooltips="1" connect="1" arrows="1" fold="1" page="1" pageScale="1" pageWidth="827" pageHeight="1169" background="#ffffff" math="0" shadow="0">
      <root>
        <mxCell id="0" />
        <mxCell id="1" parent="0" />
        <mxCell id="Zed7AThDb2oXmbVCsnqb-12" style="edgeStyle=orthogonalEdgeStyle;rounded=0;orthogonalLoop=1;jettySize=auto;html=1;exitX=1;exitY=0.5;exitDx=0;exitDy=0;entryX=0;entryY=0.5;entryDx=0;entryDy=0;" parent="1" source="Zed7AThDb2oXmbVCsnqb-5" target="Zed7AThDb2oXmbVCsnqb-7" edge="1">
          <mxGeometry relative="1" as="geometry" />
        </mxCell>
        <mxCell id="Zed7AThDb2oXmbVCsnqb-22" style="rounded=0;orthogonalLoop=1;jettySize=auto;html=1;exitX=0.5;exitY=1;exitDx=0;exitDy=0;entryX=0.5;entryY=0;entryDx=0;entryDy=0;" parent="1" source="Zed7AThDb2oXmbVCsnqb-5" target="Zed7AThDb2oXmbVCsnqb-21" edge="1">
          <mxGeometry relative="1" as="geometry" />
        </mxCell>
        <mxCell id="Zed7AThDb2oXmbVCsnqb-5" value="STARTED" style="ellipse;whiteSpace=wrap;html=1;fillColor=#fff2cc;strokeColor=#d6b656;" parent="1" vertex="1">
          <mxGeometry x="300" y="150" width="120" height="80" as="geometry" />
        </mxCell>
        <mxCell id="Zed7AThDb2oXmbVCsnqb-11" style="edgeStyle=orthogonalEdgeStyle;rounded=0;orthogonalLoop=1;jettySize=auto;html=1;exitX=1;exitY=0.5;exitDx=0;exitDy=0;entryX=0;entryY=0.5;entryDx=0;entryDy=0;" parent="1" target="Zed7AThDb2oXmbVCsnqb-5" edge="1">
          <mxGeometry relative="1" as="geometry">
            <mxPoint x="119.99999999999477" y="190" as="sourcePoint" />
          </mxGeometry>
        </mxCell>
        <mxCell id="Zed7AThDb2oXmbVCsnqb-16" value="&lt;b&gt;триггер&lt;/b&gt;: начата обработка кейса&lt;br style=&quot;font-size: 10px;&quot;&gt;&lt;b&gt;действие&lt;/b&gt;: отправлен запрос в payment" style="edgeLabel;html=1;align=center;verticalAlign=middle;resizable=0;points=[];fontSize=10;" parent="Zed7AThDb2oXmbVCsnqb-11" vertex="1" connectable="0">
          <mxGeometry x="-0.2" y="3" relative="1" as="geometry">
            <mxPoint x="18" y="-17" as="offset" />
          </mxGeometry>
        </mxCell>
        <mxCell id="Zed7AThDb2oXmbVCsnqb-13" style="edgeStyle=orthogonalEdgeStyle;rounded=0;orthogonalLoop=1;jettySize=auto;html=1;exitX=1;exitY=0.5;exitDx=0;exitDy=0;" parent="1" source="Zed7AThDb2oXmbVCsnqb-7" target="Zed7AThDb2oXmbVCsnqb-8" edge="1">
          <mxGeometry relative="1" as="geometry" />
        </mxCell>
        <mxCell id="Zed7AThDb2oXmbVCsnqb-7" value="PAYMENT_ CONFIRMED" style="ellipse;whiteSpace=wrap;html=1;fillColor=#fff2cc;strokeColor=#d6b656;" parent="1" vertex="1">
          <mxGeometry x="600" y="150" width="120" height="80" as="geometry" />
        </mxCell>
        <mxCell id="Zed7AThDb2oXmbVCsnqb-14" style="edgeStyle=orthogonalEdgeStyle;rounded=0;orthogonalLoop=1;jettySize=auto;html=1;exitX=1;exitY=0.5;exitDx=0;exitDy=0;entryX=0;entryY=0.5;entryDx=0;entryDy=0;" parent="1" source="Zed7AThDb2oXmbVCsnqb-8" target="Zed7AThDb2oXmbVCsnqb-9" edge="1">
          <mxGeometry relative="1" as="geometry" />
        </mxCell>
        <mxCell id="Zed7AThDb2oXmbVCsnqb-20" value="&lt;font style=&quot;font-size: 10px;&quot;&gt;&lt;b&gt;триггер:&lt;/b&gt; получен ответ на запрос &lt;br&gt;delivery, SUCCESS&lt;br style=&quot;border-color: var(--border-color);&quot;&gt;&lt;b&gt;действие:&lt;/b&gt; отправлен ответ &lt;br&gt;в order, COMPLETED&lt;/font&gt;" style="edgeLabel;html=1;align=center;verticalAlign=middle;resizable=0;points=[];" parent="Zed7AThDb2oXmbVCsnqb-14" vertex="1" connectable="0">
          <mxGeometry x="-0.1" y="1" relative="1" as="geometry">
            <mxPoint y="-32" as="offset" />
          </mxGeometry>
        </mxCell>
        <mxCell id="Zed7AThDb2oXmbVCsnqb-32" style="edgeStyle=orthogonalEdgeStyle;rounded=0;orthogonalLoop=1;jettySize=auto;html=1;exitX=0.5;exitY=1;exitDx=0;exitDy=0;entryX=0.5;entryY=0;entryDx=0;entryDy=0;" parent="1" source="Zed7AThDb2oXmbVCsnqb-8" target="Zed7AThDb2oXmbVCsnqb-29" edge="1">
          <mxGeometry relative="1" as="geometry" />
        </mxCell>
        <mxCell id="Zed7AThDb2oXmbVCsnqb-33" value="&lt;b style=&quot;border-color: var(--border-color);&quot;&gt;триггер&lt;/b&gt;&lt;span style=&quot;border-color: var(--border-color); font-size: 10px;&quot;&gt;: получен ответ на запрос&lt;br style=&quot;border-color: var(--border-color);&quot;&gt;&lt;div style=&quot;border-color: var(--border-color);&quot;&gt;delivery, FAILED&lt;/div&gt;&lt;/span&gt;&lt;span style=&quot;border-color: var(--border-color); font-size: 10px;&quot;&gt;&lt;b style=&quot;border-color: var(--border-color);&quot;&gt;действие&lt;/b&gt;&lt;/span&gt;&lt;span style=&quot;border-color: var(--border-color); font-size: 10px;&quot;&gt;: отправлена отмена в store&lt;/span&gt;" style="edgeLabel;html=1;align=center;verticalAlign=middle;resizable=0;points=[];" parent="Zed7AThDb2oXmbVCsnqb-32" vertex="1" connectable="0">
          <mxGeometry x="-0.2667" y="-1" relative="1" as="geometry">
            <mxPoint x="1" y="6" as="offset" />
          </mxGeometry>
        </mxCell>
        <mxCell id="Zed7AThDb2oXmbVCsnqb-8" value="STORE_ CONFIRMED" style="ellipse;whiteSpace=wrap;html=1;fillColor=#fff2cc;strokeColor=#d6b656;" parent="1" vertex="1">
          <mxGeometry x="915" y="150" width="120" height="80" as="geometry" />
        </mxCell>
        <mxCell id="Zed7AThDb2oXmbVCsnqb-9" value="COMPLETED" style="ellipse;whiteSpace=wrap;html=1;fillColor=#d5e8d4;strokeColor=#82b366;" parent="1" vertex="1">
          <mxGeometry x="1235" y="150" width="120" height="80" as="geometry" />
        </mxCell>
        <mxCell id="Zed7AThDb2oXmbVCsnqb-21" value="FAILED" style="ellipse;whiteSpace=wrap;html=1;fillColor=#C3ABD0;strokeColor=#b85450;" parent="1" vertex="1">
          <mxGeometry x="300" y="350" width="120" height="80" as="geometry" />
        </mxCell>
        <mxCell id="Zed7AThDb2oXmbVCsnqb-27" style="edgeStyle=orthogonalEdgeStyle;rounded=0;orthogonalLoop=1;jettySize=auto;html=1;exitX=0;exitY=0.5;exitDx=0;exitDy=0;entryX=1;entryY=0.5;entryDx=0;entryDy=0;" parent="1" source="Zed7AThDb2oXmbVCsnqb-24" target="Zed7AThDb2oXmbVCsnqb-21" edge="1">
          <mxGeometry relative="1" as="geometry" />
        </mxCell>
        <mxCell id="Zed7AThDb2oXmbVCsnqb-28" value="&lt;b style=&quot;border-color: var(--border-color);&quot;&gt;триггер&lt;/b&gt;: получен ответ на отмену&lt;br style=&quot;border-color: var(--border-color);&quot;&gt;&lt;div style=&quot;border-color: var(--border-color);&quot;&gt;payment, SUCCESS&lt;/div&gt;&lt;b style=&quot;border-color: var(--border-color);&quot;&gt;действие&lt;/b&gt;&lt;span style=&quot;border-color: var(--border-color); font-size: 10px;&quot;&gt;: отправлен ответ в order,&lt;br&gt;FAILED&lt;br&gt;&lt;/span&gt;" style="edgeLabel;html=1;align=center;verticalAlign=middle;resizable=0;points=[];" parent="Zed7AThDb2oXmbVCsnqb-27" vertex="1" connectable="0">
          <mxGeometry x="0.0333" relative="1" as="geometry">
            <mxPoint x="4" y="-32" as="offset" />
          </mxGeometry>
        </mxCell>
        <mxCell id="Zed7AThDb2oXmbVCsnqb-24" value="STORE_FAILED" style="ellipse;whiteSpace=wrap;html=1;fillColor=#f8cecc;strokeColor=#b85450;" parent="1" vertex="1">
          <mxGeometry x="600" y="350" width="120" height="80" as="geometry" />
        </mxCell>
        <mxCell id="Zed7AThDb2oXmbVCsnqb-30" style="edgeStyle=orthogonalEdgeStyle;rounded=0;orthogonalLoop=1;jettySize=auto;html=1;exitX=0;exitY=0.5;exitDx=0;exitDy=0;entryX=1;entryY=0.5;entryDx=0;entryDy=0;" parent="1" source="Zed7AThDb2oXmbVCsnqb-29" target="Zed7AThDb2oXmbVCsnqb-24" edge="1">
          <mxGeometry relative="1" as="geometry" />
        </mxCell>
        <mxCell id="Zed7AThDb2oXmbVCsnqb-31" value="&lt;b style=&quot;border-color: var(--border-color);&quot;&gt;триггер&lt;/b&gt;: получен ответ на отмену&lt;br style=&quot;border-color: var(--border-color);&quot;&gt;&lt;div style=&quot;border-color: var(--border-color);&quot;&gt;store, SUCCESS&lt;/div&gt;&lt;span style=&quot;border-color: var(--border-color); font-size: 10px;&quot;&gt;&lt;b style=&quot;border-color: var(--border-color);&quot;&gt;действие&lt;/b&gt;&lt;/span&gt;&lt;span style=&quot;border-color: var(--border-color); font-size: 10px;&quot;&gt;: отправлена отмена в payment&lt;/span&gt;" style="edgeLabel;html=1;align=center;verticalAlign=middle;resizable=0;points=[];" parent="Zed7AThDb2oXmbVCsnqb-30" vertex="1" connectable="0">
          <mxGeometry x="0.0118" y="1" relative="1" as="geometry">
            <mxPoint y="-31" as="offset" />
          </mxGeometry>
        </mxCell>
        <mxCell id="Zed7AThDb2oXmbVCsnqb-29" value="DELIVERY_FAILED" style="ellipse;whiteSpace=wrap;html=1;fillColor=#f8cecc;strokeColor=#b85450;" parent="1" vertex="1">
          <mxGeometry x="915" y="350" width="120" height="80" as="geometry" />
        </mxCell>
        <mxCell id="Zed7AThDb2oXmbVCsnqb-34" style="edgeStyle=orthogonalEdgeStyle;rounded=0;orthogonalLoop=1;jettySize=auto;html=1;exitX=1;exitY=1;exitDx=0;exitDy=0;entryX=0;entryY=1;entryDx=0;entryDy=0;curved=1;" parent="1" source="Zed7AThDb2oXmbVCsnqb-29" target="Zed7AThDb2oXmbVCsnqb-29" edge="1">
          <mxGeometry relative="1" as="geometry">
            <Array as="points">
              <mxPoint x="1017" y="470" />
              <mxPoint x="933" y="470" />
            </Array>
          </mxGeometry>
        </mxCell>
        <mxCell id="Zed7AThDb2oXmbVCsnqb-36" value="&lt;b style=&quot;border-color: var(--border-color);&quot;&gt;триггер&lt;/b&gt;: получен ответ на отмену&lt;br style=&quot;border-color: var(--border-color);&quot;&gt;&lt;div style=&quot;border-color: var(--border-color);&quot;&gt;store, FAILED&lt;/div&gt;&lt;b style=&quot;border-color: var(--border-color);&quot;&gt;действие&lt;/b&gt;&lt;span style=&quot;border-color: var(--border-color); font-size: 10px;&quot;&gt;: инкрементирован tryCount, &lt;br&gt;повторно отправлена отмена в store&lt;br&gt;(если tryCount не превышен)&amp;nbsp;&lt;/span&gt;" style="edgeLabel;html=1;align=center;verticalAlign=middle;resizable=0;points=[];" parent="Zed7AThDb2oXmbVCsnqb-34" vertex="1" connectable="0">
          <mxGeometry x="-0.0425" y="-1" relative="1" as="geometry">
            <mxPoint x="-4" y="41" as="offset" />
          </mxGeometry>
        </mxCell>
        <mxCell id="Zed7AThDb2oXmbVCsnqb-35" style="edgeStyle=orthogonalEdgeStyle;rounded=0;orthogonalLoop=1;jettySize=auto;html=1;exitX=1;exitY=1;exitDx=0;exitDy=0;entryX=0;entryY=1;entryDx=0;entryDy=0;curved=1;" parent="1" source="Zed7AThDb2oXmbVCsnqb-24" target="Zed7AThDb2oXmbVCsnqb-24" edge="1">
          <mxGeometry relative="1" as="geometry">
            <Array as="points">
              <mxPoint x="702" y="470" />
              <mxPoint x="618" y="470" />
            </Array>
          </mxGeometry>
        </mxCell>
        <mxCell id="Zed7AThDb2oXmbVCsnqb-37" value="&lt;b style=&quot;border-color: var(--border-color);&quot;&gt;триггер&lt;/b&gt;: получен ответ на отмену&lt;br style=&quot;border-color: var(--border-color);&quot;&gt;&lt;div style=&quot;border-color: var(--border-color);&quot;&gt;payment, FAILED&lt;/div&gt;&lt;b style=&quot;border-color: var(--border-color);&quot;&gt;действие&lt;/b&gt;: инкрементирован tryCount,&lt;br style=&quot;border-color: var(--border-color);&quot;&gt;повторно отправлена отмена в payment&lt;br style=&quot;border-color: var(--border-color);&quot;&gt;(если tryCount не превышен)&amp;nbsp;" style="edgeLabel;html=1;align=center;verticalAlign=middle;resizable=0;points=[];" parent="Zed7AThDb2oXmbVCsnqb-35" vertex="1" connectable="0">
          <mxGeometry x="0.0213" y="-3" relative="1" as="geometry">
            <mxPoint x="2" y="43" as="offset" />
          </mxGeometry>
        </mxCell>
        <mxCell id="CrmGV0YVb1WpP6SqVi9G-1" value="NEW" style="ellipse;whiteSpace=wrap;html=1;fillColor=#fff2cc;strokeColor=#d6b656;" parent="1" vertex="1">
          <mxGeometry y="150" width="120" height="80" as="geometry" />
        </mxCell>
        <mxCell id="CrmGV0YVb1WpP6SqVi9G-2" value="&lt;b&gt;триггер:&lt;/b&gt; получен ответ на запрос &lt;br&gt;payments, SUCCESS&lt;br style=&quot;font-size: 10px;&quot;&gt;&lt;b&gt;действие:&lt;/b&gt; отправлен запрос в store" style="edgeLabel;html=1;align=center;verticalAlign=middle;resizable=0;points=[];fontSize=10;" parent="1" vertex="1" connectable="0">
          <mxGeometry x="510.0035286766768" y="159.99971688476668" as="geometry" />
        </mxCell>
        <mxCell id="CrmGV0YVb1WpP6SqVi9G-3" value="&lt;span style=&quot;color: rgb(0, 0, 0); font-family: Helvetica; font-size: 10px; font-style: normal; font-variant-ligatures: normal; font-variant-caps: normal; letter-spacing: normal; orphans: 2; text-align: center; text-indent: 0px; text-transform: none; widows: 2; word-spacing: 0px; -webkit-text-stroke-width: 0px; background-color: rgb(255, 255, 255); text-decoration-thickness: initial; text-decoration-style: initial; text-decoration-color: initial; float: none; display: inline !important;&quot;&gt;&lt;b&gt;триггер&lt;/b&gt;&lt;/span&gt;&lt;span style=&quot;color: rgb(0, 0, 0); font-family: Helvetica; font-size: 10px; font-style: normal; font-variant-ligatures: normal; font-variant-caps: normal; font-weight: 400; letter-spacing: normal; orphans: 2; text-indent: 0px; text-transform: none; widows: 2; word-spacing: 0px; -webkit-text-stroke-width: 0px; background-color: rgb(255, 255, 255); text-decoration-thickness: initial; text-decoration-style: initial; text-decoration-color: initial; float: none; display: inline !important;&quot;&gt;: получен ответ на запрос &lt;br&gt;&lt;div style=&quot;text-align: center;&quot;&gt;store, SUCCESS&lt;/div&gt;&lt;/span&gt;&lt;span style=&quot;color: rgb(0, 0, 0); font-family: Helvetica; font-size: 10px; font-style: normal; font-variant-ligatures: normal; font-variant-caps: normal; letter-spacing: normal; orphans: 2; text-align: center; text-indent: 0px; text-transform: none; widows: 2; word-spacing: 0px; -webkit-text-stroke-width: 0px; background-color: rgb(255, 255, 255); text-decoration-thickness: initial; text-decoration-style: initial; text-decoration-color: initial; float: none; display: inline !important;&quot;&gt;&lt;b&gt;действие&lt;/b&gt;&lt;/span&gt;&lt;span style=&quot;color: rgb(0, 0, 0); font-family: Helvetica; font-size: 10px; font-style: normal; font-variant-ligatures: normal; font-variant-caps: normal; font-weight: 400; letter-spacing: normal; orphans: 2; text-align: center; text-indent: 0px; text-transform: none; widows: 2; word-spacing: 0px; -webkit-text-stroke-width: 0px; background-color: rgb(255, 255, 255); text-decoration-thickness: initial; text-decoration-style: initial; text-decoration-color: initial; float: none; display: inline !important;&quot;&gt;: отправлен запрос в delivery&lt;/span&gt;" style="text;whiteSpace=wrap;html=1;" parent="1" vertex="1">
          <mxGeometry x="720" y="135" width="290" height="50" as="geometry" />
        </mxCell>
        <mxCell id="CrmGV0YVb1WpP6SqVi9G-4" value="&lt;span style=&quot;border-color: var(--border-color); color: rgb(0, 0, 0); font-family: Helvetica; font-style: normal; font-variant-ligatures: normal; font-variant-caps: normal; font-weight: 400; letter-spacing: normal; orphans: 2; text-indent: 0px; text-transform: none; widows: 2; word-spacing: 0px; -webkit-text-stroke-width: 0px; text-decoration-thickness: initial; text-decoration-style: initial; text-decoration-color: initial; font-size: 10px; background-color: rgb(255, 255, 255); float: none; display: inline !important;&quot;&gt;&lt;b style=&quot;border-color: var(--border-color);&quot;&gt;триггер&lt;/b&gt;&lt;/span&gt;&lt;span style=&quot;border-color: var(--border-color); color: rgb(0, 0, 0); font-family: Helvetica; font-style: normal; font-variant-ligatures: normal; font-variant-caps: normal; font-weight: 400; letter-spacing: normal; orphans: 2; text-indent: 0px; text-transform: none; widows: 2; word-spacing: 0px; -webkit-text-stroke-width: 0px; text-decoration-thickness: initial; text-decoration-style: initial; text-decoration-color: initial; font-size: 10px; background-color: rgb(255, 255, 255); float: none; display: inline !important;&quot;&gt;: получен ответ на запрос&lt;br style=&quot;border-color: var(--border-color);&quot;&gt;&lt;div style=&quot;border-color: var(--border-color);&quot;&gt;payment, FAILED&lt;/div&gt;&lt;/span&gt;&lt;span style=&quot;border-color: var(--border-color); color: rgb(0, 0, 0); font-family: Helvetica; font-style: normal; font-variant-ligatures: normal; font-variant-caps: normal; font-weight: 400; letter-spacing: normal; orphans: 2; text-indent: 0px; text-transform: none; widows: 2; word-spacing: 0px; -webkit-text-stroke-width: 0px; text-decoration-thickness: initial; text-decoration-style: initial; text-decoration-color: initial; font-size: 10px; background-color: rgb(255, 255, 255); float: none; display: inline !important;&quot;&gt;&lt;b style=&quot;border-color: var(--border-color);&quot;&gt;действие&lt;/b&gt;&lt;/span&gt;&lt;span style=&quot;border-color: var(--border-color); color: rgb(0, 0, 0); font-family: Helvetica; font-style: normal; font-variant-ligatures: normal; font-variant-caps: normal; font-weight: 400; letter-spacing: normal; orphans: 2; text-indent: 0px; text-transform: none; widows: 2; word-spacing: 0px; -webkit-text-stroke-width: 0px; text-decoration-thickness: initial; text-decoration-style: initial; text-decoration-color: initial; font-size: 10px; background-color: rgb(255, 255, 255); float: none; display: inline !important;&quot;&gt;: отправлен ответ в order, FAILED&amp;nbsp;&lt;/span&gt;" style="text;whiteSpace=wrap;html=1;align=center;" parent="1" vertex="1">
          <mxGeometry x="255" y="250" width="210" height="60" as="geometry" />
        </mxCell>
        <mxCell id="CrmGV0YVb1WpP6SqVi9G-6" value="" style="edgeStyle=orthogonalEdgeStyle;rounded=0;orthogonalLoop=1;jettySize=auto;html=1;exitX=0.5;exitY=1;exitDx=0;exitDy=0;" parent="1" source="Zed7AThDb2oXmbVCsnqb-7" target="Zed7AThDb2oXmbVCsnqb-24" edge="1">
          <mxGeometry relative="1" as="geometry">
            <mxPoint x="660" y="230" as="sourcePoint" />
            <mxPoint x="660" y="350" as="targetPoint" />
          </mxGeometry>
        </mxCell>
        <mxCell id="CrmGV0YVb1WpP6SqVi9G-5" value="&lt;span style=&quot;border-color: var(--border-color); color: rgb(0, 0, 0); font-family: Helvetica; font-style: normal; font-variant-ligatures: normal; font-variant-caps: normal; font-weight: 400; letter-spacing: normal; orphans: 2; text-indent: 0px; text-transform: none; widows: 2; word-spacing: 0px; -webkit-text-stroke-width: 0px; text-decoration-thickness: initial; text-decoration-style: initial; text-decoration-color: initial; font-size: 10px; background-color: rgb(255, 255, 255); float: none; display: inline !important;&quot;&gt;&lt;b style=&quot;border-color: var(--border-color);&quot;&gt;триггер&lt;/b&gt;&lt;/span&gt;&lt;span style=&quot;border-color: var(--border-color); color: rgb(0, 0, 0); font-family: Helvetica; font-style: normal; font-variant-ligatures: normal; font-variant-caps: normal; font-weight: 400; letter-spacing: normal; orphans: 2; text-indent: 0px; text-transform: none; widows: 2; word-spacing: 0px; -webkit-text-stroke-width: 0px; text-decoration-thickness: initial; text-decoration-style: initial; text-decoration-color: initial; font-size: 10px; background-color: rgb(255, 255, 255); float: none; display: inline !important;&quot;&gt;: получен ответ на запрос&lt;br style=&quot;border-color: var(--border-color);&quot;&gt;&lt;div style=&quot;border-color: var(--border-color);&quot;&gt;store, FAILED&lt;/div&gt;&lt;/span&gt;&lt;span style=&quot;border-color: var(--border-color); color: rgb(0, 0, 0); font-family: Helvetica; font-style: normal; font-variant-ligatures: normal; font-variant-caps: normal; font-weight: 400; letter-spacing: normal; orphans: 2; text-indent: 0px; text-transform: none; widows: 2; word-spacing: 0px; -webkit-text-stroke-width: 0px; text-decoration-thickness: initial; text-decoration-style: initial; text-decoration-color: initial; font-size: 10px; background-color: rgb(255, 255, 255); float: none; display: inline !important;&quot;&gt;&lt;b style=&quot;border-color: var(--border-color);&quot;&gt;действие&lt;/b&gt;&lt;/span&gt;&lt;span style=&quot;border-color: var(--border-color); color: rgb(0, 0, 0); font-family: Helvetica; font-style: normal; font-variant-ligatures: normal; font-variant-caps: normal; font-weight: 400; letter-spacing: normal; orphans: 2; text-indent: 0px; text-transform: none; widows: 2; word-spacing: 0px; -webkit-text-stroke-width: 0px; text-decoration-thickness: initial; text-decoration-style: initial; text-decoration-color: initial; font-size: 10px; background-color: rgb(255, 255, 255); float: none; display: inline !important;&quot;&gt;: отправлена отмена в payment&lt;/span&gt;" style="text;whiteSpace=wrap;html=1;align=center;" parent="1" vertex="1">
          <mxGeometry x="553" y="258" width="210" height="60" as="geometry" />
        </mxCell>
      </root>
    </mxGraphModel>
  </diagram>
</mxfile>
